<svg xmlns="http://www.w3.org/2000/svg" viewBox="0 0 64 64">
  <path d="M32 7 56 19 32 31 8 19Z" fill="#f6d693" stroke="#53350f" stroke-linejoin="round" stroke-width="3"/>
  <path d="M8 19 32 31v26L8 45Z" fill="#dfa74c" stroke="#53350f" stroke-linejoin="round" stroke-width="3"/>
  <path d="M56 19 32 31v26l24-12Z" fill="#a9691d" stroke="#53350f" stroke-linejoin="round" stroke-width="3"/>
  <path d="M23 11.5 47 23.5l-6 3-24-12Z" fill="#efd8a4" stroke="#a5772b" stroke-linejoin="round" stroke-width="1.5"/>
  <circle cx="13" cy="30" r="3.4" fill="#2a3f44"/>
  <circle cx="24" cy="35.5" r="3.4" fill="#2a3f44"/>
  <circle cx="24" cy="35.5" r="6.2" fill="none" stroke="#2a3f44" stroke-width="2.4"/>
  <g transform="translate(17.5 45) matrix(1 .5 0 1 0 0)">
    <path d="M-2 0-8.5 -3.5v7z" fill="#35555c"/>
    <path d="M2 0 8.5 -3.5v7z" fill="#35555c"/>
    <rect x="-2.2" y="-2.6" width="4.4" height="5.2" rx="1.2" fill="#e9b650"/>
  </g>
</svg>
