<svg xmlns="http://www.w3.org/2000/svg" viewBox="0 0 320 320" role="img" aria-labelledby="title description">
  <title id="title">mr boxington</title>
  <desc id="description">A friendly cardboard cache box wearing a bow tie</desc>
  <defs>
    <linearGradient id="box" x1="0" y1="0" x2="1" y2="1">
      <stop offset="0" stop-color="#efc477"/>
      <stop offset="1" stop-color="#b97522"/>
    </linearGradient>
    <linearGradient id="side" x1="0" y1="0" x2="1" y2="1">
      <stop offset="0" stop-color="#c98932"/>
      <stop offset="1" stop-color="#8a5215"/>
    </linearGradient>
  </defs>
  <path d="M54 91 160 38l106 53-106 54z" fill="#f1c875" stroke="#5c3a16" stroke-linejoin="round" stroke-width="8"/>
  <path d="m54 91 106 54v131L54 220z" fill="url(#box)" stroke="#5c3a16" stroke-linejoin="round" stroke-width="8"/>
  <path d="m266 91-106 54v131l106-56z" fill="url(#side)" stroke="#5c3a16" stroke-linejoin="round" stroke-width="8"/>
  <path d="M160 145v131" fill="none" stroke="#5c3a16" stroke-width="8"/>
  <path d="m118 59 104 53v36" fill="none" stroke="#9b611c" stroke-linejoin="round" stroke-width="12"/>
  <g transform="matrix(1 .509 0 1 54 91)" stroke="#24373b" stroke-linecap="round" stroke-linejoin="round">
    <circle cx="34" cy="50" r="7" fill="#24373b" stroke="none"/>
    <circle cx="72" cy="50" r="7" fill="#24373b" stroke="none"/>
    <circle cx="72" cy="50" r="14" fill="none" stroke-width="4"/>
    <path d="m82 60 5 20" fill="none" stroke-width="4"/>
    <path d="M53 76c-8-12-24-12-32 1 12-1 21 4 27 12 4-4 6-8 5-13Z" fill="#24373b" stroke="none"/>
    <path d="M53 76c8-12 24-12 32 1-12-1-21 4-27 12-4-4-6-8-5-13Z" fill="#24373b" stroke="none"/>
    <path d="m51 108-25-13 2 27 23-8Z" fill="#34545b" stroke-width="4"/>
    <path d="m55 108 25-13-2 27-23-8Z" fill="#34545b" stroke-width="4"/>
    <path d="m48 104 10 1 1 14-12-2Z" fill="#e9b650" stroke-width="4"/>
  </g>
</svg>
