<svg xmlns="http://www.w3.org/2000/svg" viewBox="0 0 128 128" role="img" aria-label="A broom sweeping">
  <defs>
    <linearGradient id="bristles" x1="0" y1="0" x2="1" y2="1">
      <stop offset="0" stop-color="#f6d693"/>
      <stop offset="1" stop-color="#c4862c"/>
    </linearGradient>
  </defs>
  <!-- handle -->
  <path d="M96 12 60 68" fill="none" stroke="#53350f" stroke-width="18" stroke-linecap="round"/>
  <path d="M96 12 60 68" fill="none" stroke="#a5772b" stroke-width="8" stroke-linecap="round"/>
  <!-- bristle head -->
  <path d="M52 62 26 104q-4 7 4 8l48 6q8 1 6-7L70 66q-2-7-9-8t-9 4Z"
        fill="url(#bristles)" stroke="#53350f" stroke-width="7" stroke-linejoin="round"/>
  <path d="M44 76l-9 30M56 78l-2 32M66 78l8 31" fill="none" stroke="#53350f" stroke-width="4" stroke-linecap="round" opacity=".55"/>
  <!-- binding band -->
  <path d="M49 67q10-8 22 1l3 9q-15-9-29 1Z" fill="#f6ecd2" stroke="#53350f" stroke-width="5" stroke-linejoin="round"/>
  <!-- dust sparkles -->
  <g fill="#e8b95f">
    <path d="M99 78l3 7 7 3-7 3-3 7-3-7-7-3 7-3Z"/>
    <circle cx="112" cy="104" r="4"/>
    <circle cx="94" cy="112" r="3"/>
  </g>
</svg>
